<svg data-v-423bf9ae="" xmlns="http://www.w3.org/2000/svg" viewBox="0 0 672 90" class="iconLeft"><!----><!----><!----><g data-v-423bf9ae="" id="3868dd29-2bdb-44e2-9f2f-4c13e66fd4e5" fill="#000000" transform="matrix(5.825242610575063,0,0,5.825242610575063,129.00214188804205,-3.87378539856131)"><path d="M0.96 12.59L0.96 12.59L0.96 12.59Q0.60 12.26 0.77 12.02L0.77 12.02L1.13 11.50L1.13 11.50Q1.31 11.24 1.72 11.55L1.72 11.55L1.72 11.55Q2.26 11.95 2.85 12.21L2.85 12.21L2.85 12.21Q3.43 12.47 4.27 12.47L4.27 12.47L4.27 12.47Q4.88 12.47 5.30 12.28L5.30 12.28L5.30 12.28Q5.73 12.10 5.98 11.75L5.98 11.75L5.98 11.75Q6.24 11.41 6.24 10.92L6.24 10.92L6.24 10.92Q6.24 10.56 6.14 10.26L6.14 10.26L6.14 10.26Q6.03 9.95 5.80 9.75L5.80 9.75L5.80 9.75Q5.56 9.54 5.31 9.43L5.31 9.43L5.31 9.43Q4.89 9.24 4.06 8.98L4.06 8.98L4.06 8.98Q3.23 8.73 2.61 8.44L2.61 8.44L2.61 8.44Q2.00 8.14 1.63 7.72L1.63 7.72L1.63 7.72Q1.26 7.31 1.15 6.87L1.15 6.87L1.15 6.87Q1.03 6.43 1.03 5.86L1.03 5.86L1.03 5.86Q1.03 4.99 1.53 4.36L1.53 4.36L1.53 4.36Q2.04 3.73 2.77 3.53L2.77 3.53L2.77 3.53Q3.51 3.32 4.27 3.32L4.27 3.32L4.27 3.32Q5.13 3.32 5.78 3.55L5.78 3.55L5.78 3.55Q6.42 3.77 6.92 4.14L6.92 4.14L6.92 4.14Q7.28 4.39 7.09 4.67L7.09 4.67L6.74 5.17L6.74 5.17Q6.58 5.39 6.13 5.07L6.13 5.07L6.13 5.07Q5.78 4.83 5.27 4.61L5.27 4.61L5.27 4.61Q4.77 4.40 4.28 4.40L4.28 4.40L4.28 4.40Q3.65 4.40 3.23 4.54L3.23 4.54L3.23 4.54Q2.82 4.69 2.58 5.04L2.58 5.04L2.58 5.04Q2.34 5.39 2.34 5.84L2.34 5.84L2.34 5.84Q2.34 6.13 2.39 6.37L2.39 6.37L2.39 6.37Q2.45 6.62 2.67 6.87L2.67 6.87L2.67 6.87Q2.90 7.12 3.22 7.26L3.22 7.26L3.22 7.26Q3.65 7.44 4.56 7.69L4.56 7.69L4.56 7.69Q5.46 7.94 6.14 8.31L6.14 8.31L6.14 8.31Q6.77 8.64 7.04 9.01L7.04 9.01L7.04 9.01Q7.32 9.37 7.48 9.80L7.48 9.80L7.48 9.80Q7.63 10.23 7.63 10.76L7.63 10.76L7.63 10.76Q7.63 11.73 7.13 12.38L7.13 12.38L7.13 12.38Q6.63 13.03 5.95 13.28L5.95 13.28L5.95 13.28Q5.26 13.54 4.23 13.54L4.23 13.54L4.23 13.54Q2.99 13.54 2.18 13.25L2.18 13.25L2.18 13.25Q1.37 12.96 0.96 12.59ZM9.32 10.83L9.32 10.83L9.32 6.46L9.32 6.46Q9.32 6.15 9.63 6.15L9.63 6.15L10.22 6.15L10.22 6.15Q10.53 6.15 10.53 6.46L10.53 6.46L10.53 10.50L10.53 10.50Q10.53 11.84 10.97 12.20L10.97 12.20L10.97 12.20Q11.42 12.56 12.07 12.56L12.07 12.56L12.07 12.56Q12.93 12.56 13.39 12.03L13.39 12.03L13.39 12.03Q13.85 11.50 13.85 10.21L13.85 10.21L13.85 6.46L13.85 6.46Q13.85 6.15 14.16 6.15L14.16 6.15L14.75 6.15L14.75 6.15Q15.05 6.15 15.05 6.46L15.05 6.46L15.05 13.02L15.05 13.02Q15.05 13.33 14.75 13.33L14.75 13.33L14.17 13.33L14.17 13.33Q13.86 13.33 13.86 13.02L13.86 13.02L13.86 12.48L13.84 12.48L13.84 12.48Q13.39 12.97 12.88 13.21L12.88 13.21L12.88 13.21Q12.37 13.45 11.63 13.45L11.63 13.45L11.63 13.45Q10.43 13.45 9.88 12.75L9.88 12.75L9.88 12.75Q9.32 12.04 9.32 10.83ZM17.88 13.33L17.30 13.33L17.30 13.33Q16.99 13.33 16.99 13.02L16.99 13.02L16.99 3.55L16.99 3.55Q16.99 3.24 17.30 3.24L17.30 3.24L17.89 3.24L17.89 3.24Q18.20 3.24 18.20 3.55L18.20 3.55L18.20 6.59L18.20 6.59Q18.20 6.80 18.18 7.01L18.18 7.01L18.20 7.01L18.20 7.01Q18.57 6.56 19.04 6.30L19.04 6.30L19.04 6.30Q19.52 6.04 20.30 6.04L20.30 6.04L20.30 6.04Q21.67 6.04 22.38 7.15L22.38 7.15L22.38 7.15Q23.09 8.27 23.09 9.74L23.09 9.74L23.09 9.74Q23.09 11.21 22.38 12.33L22.38 12.33L22.38 12.33Q21.67 13.45 20.30 13.45L20.30 13.45L20.30 13.45Q19.52 13.45 19.04 13.19L19.04 13.19L19.04 13.19Q18.57 12.93 18.20 12.48L18.20 12.48L18.18 12.48L18.14 13.02L18.14 13.02Q18.12 13.33 17.88 13.33L17.88 13.33ZM18.20 8.96L18.20 10.53L18.20 10.53Q18.20 11.55 18.69 12.06L18.69 12.06L18.69 12.06Q19.17 12.56 19.91 12.56L19.91 12.56L19.91 12.56Q20.95 12.56 21.39 11.78L21.39 11.78L21.39 11.78Q21.82 11.00 21.82 9.74L21.82 9.74L21.82 9.74Q21.82 8.48 21.39 7.70L21.39 7.70L21.39 7.70Q20.95 6.92 19.91 6.92L19.91 6.92L19.91 6.92Q19.17 6.92 18.69 7.43L18.69 7.43L18.69 7.43Q18.20 7.93 18.20 8.96L18.20 8.96ZM25.54 13.33L24.95 13.33L24.95 13.33Q24.64 13.33 24.64 13.02L24.64 13.02L24.64 6.46L24.64 6.46Q24.64 6.15 24.95 6.15L24.95 6.15L25.53 6.15L25.53 6.15Q25.83 6.15 25.83 6.46L25.83 6.46L25.83 7.01L25.86 7.01L25.86 7.01Q26.30 6.51 26.82 6.28L26.82 6.28L26.82 6.28Q27.34 6.04 27.82 6.04L27.82 6.04L27.82 6.04Q28.70 6.04 29.18 6.48L29.18 6.48L29.18 6.48Q29.65 6.92 29.79 7.36L29.79 7.36L29.82 7.36L29.82 7.36Q30.19 6.80 30.77 6.42L30.77 6.42L30.77 6.42Q31.34 6.04 31.99 6.04L31.99 6.04L31.99 6.04Q33.08 6.04 33.63 6.74L33.63 6.74L33.63 6.74Q34.19 7.44 34.19 8.65L34.19 8.65L34.19 13.02L34.19 13.02Q34.19 13.33 33.88 13.33L33.88 13.33L33.29 13.33L33.29 13.33Q32.98 13.33 32.98 13.02L32.98 13.02L32.98 9.05L32.98 9.05Q32.98 7.71 32.65 7.32L32.65 7.32L32.65 7.32Q32.31 6.92 31.62 6.92L31.62 6.92L31.62 6.92Q30.93 6.92 30.47 7.51L30.47 7.51L30.47 7.51Q30.02 8.09 30.02 9.27L30.02 9.27L30.02 13.02L30.02 13.02Q30.02 13.33 29.71 13.33L29.71 13.33L29.12 13.33L29.12 13.33Q28.81 13.33 28.81 13.02L28.81 13.02L28.81 9.05L28.81 9.05Q28.81 7.71 28.48 7.32L28.48 7.32L28.48 7.32Q28.14 6.92 27.45 6.92L27.45 6.92L27.45 6.92Q26.76 6.92 26.30 7.45L26.30 7.45L26.30 7.45Q25.85 7.98 25.85 9.27L25.85 9.27L25.85 13.02L25.85 13.02Q25.85 13.33 25.54 13.33L25.54 13.33ZM37.01 13.33L36.42 13.33L36.42 13.33Q36.11 13.33 36.11 13.02L36.11 13.02L36.11 6.46L36.11 6.46Q36.11 6.15 36.42 6.15L36.42 6.15L37.01 6.15L37.01 6.15Q37.32 6.15 37.32 6.46L37.32 6.46L37.32 13.02L37.32 13.02Q37.32 13.33 37.01 13.33L37.01 13.33ZM37.01 4.85L36.42 4.85L36.42 4.85Q36.11 4.85 36.11 4.55L36.11 4.55L36.11 3.96L36.11 3.96Q36.11 3.65 36.42 3.65L36.42 3.65L37.01 3.65L37.01 3.65Q37.32 3.65 37.32 3.96L37.32 3.96L37.32 4.55L37.32 4.55Q37.32 4.85 37.01 4.85L37.01 4.85ZM38.86 12.66L38.86 12.66L38.86 12.66Q38.64 12.46 38.77 12.29L38.77 12.29L39.07 11.86L39.07 11.86Q39.22 11.66 39.52 11.88L39.52 11.88L39.52 11.88Q39.92 12.19 40.42 12.37L40.42 12.37L40.42 12.37Q40.91 12.56 41.55 12.56L41.55 12.56L41.55 12.56Q41.92 12.56 42.22 12.47L42.22 12.47L42.22 12.47Q42.51 12.37 42.73 12.12L42.73 12.12L42.73 12.12Q42.96 11.87 42.96 11.44L42.96 11.44L42.96 11.44Q42.96 11.20 42.85 10.98L42.85 10.98L42.85 10.98Q42.75 10.76 42.52 10.63L42.52 10.63L42.52 10.63Q42.30 10.49 42.09 10.42L42.09 10.42L42.09 10.42Q41.74 10.29 41.40 10.20L41.40 10.20L41.40 10.20Q41.05 10.12 40.49 9.94L40.49 9.94L40.49 9.94Q40.11 9.82 39.78 9.61L39.78 9.61L39.78 9.61Q39.44 9.39 39.19 9.02L39.19 9.02L39.19 9.02Q38.94 8.65 38.94 8.00L38.94 8.00L38.94 8.00Q38.94 7.34 39.35 6.86L39.35 6.86L39.35 6.86Q39.75 6.38 40.36 6.21L40.36 6.21L40.36 6.21Q40.97 6.04 41.54 6.04L41.54 6.04L41.54 6.04Q42.39 6.04 42.91 6.23L42.91 6.23L42.91 6.23Q43.42 6.43 43.80 6.69L43.80 6.69L43.80 6.69Q44.02 6.85 43.86 7.05L43.86 7.05L43.55 7.46L43.55 7.46Q43.41 7.66 43.11 7.45L43.11 7.45L43.11 7.45Q42.85 7.27 42.39 7.12L42.39 7.12L42.39 7.12Q41.92 6.96 41.58 6.96L41.58 6.96L41.58 6.96Q41.15 6.96 40.84 7.05L40.84 7.05L40.84 7.05Q40.53 7.15 40.34 7.38L40.34 7.38L40.34 7.38Q40.15 7.62 40.15 7.93L40.15 7.93L40.15 7.93Q40.15 8.17 40.22 8.36L40.22 8.36L40.22 8.36Q40.30 8.54 40.50 8.70L40.50 8.70L40.50 8.70Q40.71 8.86 41.08 8.96L41.08 8.96L41.08 8.96Q41.65 9.11 42.13 9.23L42.13 9.23L42.13 9.23Q42.60 9.35 42.98 9.53L42.98 9.53L42.98 9.53Q43.48 9.76 43.75 10.04L43.75 10.04L43.75 10.04Q44.02 10.32 44.13 10.65L44.13 10.65L44.13 10.65Q44.23 10.97 44.23 11.37L44.23 11.37L44.23 11.37Q44.23 12.10 43.79 12.61L43.79 12.61L43.79 12.61Q43.36 13.11 42.83 13.28L42.83 13.28L42.83 13.28Q42.29 13.45 41.54 13.45L41.54 13.45L41.54 13.45Q40.52 13.45 39.80 13.16L39.80 13.16L39.80 13.16Q39.07 12.87 38.86 12.66ZM45.31 12.66L45.31 12.66L45.31 12.66Q45.10 12.46 45.22 12.29L45.22 12.29L45.53 11.86L45.53 11.86Q45.68 11.66 45.97 11.88L45.97 11.88L45.97 11.88Q46.38 12.19 46.87 12.37L46.87 12.37L46.87 12.37Q47.37 12.56 48.00 12.56L48.00 12.56L48.00 12.56Q48.38 12.56 48.67 12.47L48.67 12.47L48.67 12.47Q48.97 12.37 49.19 12.12L49.19 12.12L49.19 12.12Q49.41 11.87 49.41 11.44L49.41 11.44L49.41 11.44Q49.41 11.20 49.30 10.98L49.30 10.98L49.30 10.98Q49.20 10.76 48.98 10.63L48.98 10.63L48.98 10.63Q48.75 10.49 48.54 10.42L48.54 10.42L48.54 10.42Q48.19 10.29 47.85 10.20L47.85 10.20L47.85 10.20Q47.50 10.12 46.94 9.94L46.94 9.94L46.94 9.94Q46.57 9.82 46.23 9.61L46.23 9.61L46.23 9.61Q45.90 9.39 45.65 9.02L45.65 9.02L45.65 9.02Q45.40 8.65 45.40 8.00L45.40 8.00L45.40 8.00Q45.40 7.34 45.80 6.86L45.80 6.86L45.80 6.86Q46.20 6.38 46.81 6.21L46.81 6.21L46.81 6.21Q47.42 6.04 48.00 6.04L48.00 6.04L48.00 6.04Q48.84 6.04 49.36 6.23L49.36 6.23L49.36 6.23Q49.88 6.43 50.25 6.69L50.25 6.69L50.25 6.69Q50.47 6.85 50.31 7.05L50.31 7.05L50.00 7.46L50.00 7.46Q49.86 7.66 49.56 7.45L49.56 7.45L49.56 7.45Q49.31 7.27 48.84 7.12L48.84 7.12L48.84 7.12Q48.38 6.96 48.03 6.96L48.03 6.96L48.03 6.96Q47.60 6.96 47.29 7.05L47.29 7.05L47.29 7.05Q46.98 7.15 46.79 7.38L46.79 7.38L46.79 7.38Q46.60 7.62 46.60 7.93L46.60 7.93L46.60 7.93Q46.60 8.17 46.68 8.36L46.68 8.36L46.68 8.36Q46.75 8.54 46.96 8.70L46.96 8.70L46.96 8.70Q47.16 8.86 47.53 8.96L47.53 8.96L47.53 8.96Q48.10 9.11 48.58 9.23L48.58 9.23L48.58 9.23Q49.05 9.35 49.44 9.53L49.44 9.53L49.44 9.53Q49.94 9.76 50.21 10.04L50.21 10.04L50.21 10.04Q50.48 10.32 50.58 10.65L50.58 10.65L50.58 10.65Q50.68 10.97 50.68 11.37L50.68 11.37L50.68 11.37Q50.68 12.10 50.25 12.61L50.25 12.61L50.25 12.61Q49.81 13.11 49.28 13.28L49.28 13.28L49.28 13.28Q48.75 13.45 48.00 13.45L48.00 13.45L48.00 13.45Q46.98 13.45 46.25 13.16L46.25 13.16L46.25 13.16Q45.52 12.87 45.31 12.66ZM53.06 13.33L52.47 13.33L52.47 13.33Q52.17 13.33 52.17 13.02L52.17 13.02L52.17 6.46L52.17 6.46Q52.17 6.15 52.47 6.15L52.47 6.15L53.06 6.15L53.06 6.15Q53.37 6.15 53.37 6.46L53.37 6.46L53.37 13.02L53.37 13.02Q53.37 13.33 53.06 13.33L53.06 13.33ZM53.06 4.85L52.47 4.85L52.47 4.85Q52.17 4.85 52.17 4.55L52.17 4.55L52.17 3.96L52.17 3.96Q52.17 3.65 52.47 3.65L52.47 3.65L53.06 3.65L53.06 3.65Q53.37 3.65 53.37 3.96L53.37 3.96L53.37 4.55L53.37 4.55Q53.37 4.85 53.06 4.85L53.06 4.85ZM54.92 9.74L54.92 9.74L54.92 9.74Q54.92 8.13 55.77 7.09L55.77 7.09L55.77 7.09Q56.62 6.04 58.26 6.04L58.26 6.04L58.26 6.04Q59.90 6.04 60.75 7.09L60.75 7.09L60.75 7.09Q61.61 8.13 61.61 9.74L61.61 9.74L61.61 9.74Q61.61 11.35 60.75 12.40L60.75 12.40L60.75 12.40Q59.90 13.45 58.26 13.45L58.26 13.45L58.26 13.45Q56.62 13.45 55.77 12.40L55.77 12.40L55.77 12.40Q54.92 11.35 54.92 9.74ZM56.19 9.74L56.19 9.74L56.19 9.74Q56.19 11.18 56.76 11.87L56.76 11.87L56.76 11.87Q57.33 12.56 58.26 12.56L58.26 12.56L58.26 12.56Q59.20 12.56 59.77 11.87L59.77 11.87L59.77 11.87Q60.33 11.18 60.33 9.74L60.33 9.74L60.33 9.74Q60.33 8.31 59.77 7.62L59.77 7.62L59.77 7.62Q59.20 6.92 58.26 6.92L58.26 6.92L58.26 6.92Q57.33 6.92 56.76 7.62L56.76 7.62L56.76 7.62Q56.19 8.31 56.19 9.74ZM64.05 13.33L63.46 13.33L63.46 13.33Q63.16 13.33 63.16 13.02L63.16 13.02L63.16 6.46L63.16 6.46Q63.16 6.15 63.46 6.15L63.46 6.15L64.04 6.15L64.04 6.15Q64.35 6.15 64.35 6.46L64.35 6.46L64.35 7.01L64.37 7.01L64.37 7.01Q64.82 6.51 65.33 6.28L65.33 6.28L65.33 6.28Q65.84 6.04 66.61 6.04L66.61 6.04L66.61 6.04Q67.85 6.04 68.40 6.74L68.40 6.74L68.40 6.74Q68.94 7.44 68.94 8.65L68.94 8.65L68.94 13.02L68.94 13.02Q68.94 13.33 68.63 13.33L68.63 13.33L68.04 13.33L68.04 13.33Q67.74 13.33 67.74 13.02L67.74 13.02L67.74 8.98L67.74 8.98Q67.74 7.64 67.29 7.28L67.29 7.28L67.29 7.28Q66.85 6.92 66.17 6.92L66.17 6.92L66.17 6.92Q65.28 6.92 64.82 7.45L64.82 7.45L64.82 7.45Q64.36 7.98 64.36 9.27L64.36 9.27L64.36 13.02L64.36 13.02Q64.36 13.33 64.05 13.33L64.05 13.33ZM74.41 13.33L71.40 13.33L71.40 13.33Q71.06 13.33 71.06 12.95L71.06 12.95L71.06 3.90L71.06 3.90Q71.06 3.53 71.40 3.53L71.40 3.53L74.07 3.53L74.07 3.53Q76.39 3.53 77.20 4.28L77.20 4.28L77.20 4.28Q78.00 5.03 78.00 6.09L78.00 6.09L78.00 6.09Q78.00 6.93 77.33 7.52L77.33 7.52L77.33 7.52Q76.67 8.10 76.04 8.20L76.04 8.20L76.04 8.22L76.04 8.22Q76.73 8.29 77.58 8.91L77.58 8.91L77.58 8.91Q78.43 9.54 78.43 10.61L78.43 10.61L78.43 10.61Q78.43 11.77 77.57 12.55L77.57 12.55L77.57 12.55Q76.71 13.33 74.41 13.33L74.41 13.33ZM72.37 8.79L72.37 12.21L74.19 12.21L74.19 12.21Q75.66 12.21 76.34 11.85L76.34 11.85L76.34 11.85Q77.03 11.48 77.03 10.57L77.03 10.57L77.03 10.57Q77.03 9.72 76.33 9.26L76.33 9.26L76.33 9.26Q75.64 8.79 74.19 8.79L74.19 8.79L72.37 8.79ZM72.37 4.65L72.37 7.81L74.09 7.81L74.09 7.81Q75.23 7.81 75.95 7.32L75.95 7.32L75.95 7.32Q76.67 6.83 76.67 6.09L76.67 6.09L76.67 6.09Q76.67 5.39 76.13 5.02L76.13 5.02L76.13 5.02Q75.59 4.65 74.09 4.65L74.09 4.65L72.37 4.65ZM79.76 9.74L79.76 9.74L79.76 9.74Q79.76 8.13 80.61 7.09L80.61 7.09L80.61 7.09Q81.46 6.04 83.10 6.04L83.10 6.04L83.10 6.04Q84.75 6.04 85.60 7.09L85.60 7.09L85.60 7.09Q86.45 8.13 86.45 9.74L86.45 9.74L86.45 9.74Q86.45 11.35 85.60 12.40L85.60 12.40L85.60 12.40Q84.75 13.45 83.10 13.45L83.10 13.45L83.10 13.45Q81.46 13.45 80.61 12.40L80.61 12.40L80.61 12.40Q79.76 11.35 79.76 9.74ZM81.03 9.74L81.03 9.74L81.03 9.74Q81.03 11.18 81.60 11.87L81.60 11.87L81.60 11.87Q82.17 12.56 83.10 12.56L83.10 12.56L83.10 12.56Q84.04 12.56 84.61 11.87L84.61 11.87L84.61 11.87Q85.18 11.18 85.18 9.74L85.18 9.74L85.18 9.74Q85.18 8.31 84.61 7.62L84.61 7.62L84.61 7.62Q84.04 6.92 83.10 6.92L83.10 6.92L83.10 6.92Q82.17 6.92 81.60 7.62L81.60 7.62L81.60 7.62Q81.03 8.31 81.03 9.74ZM87.88 13.33L87.21 13.33L87.21 13.33Q86.75 13.33 87.03 12.93L87.03 12.93L89.36 9.55L87.29 6.56L87.29 6.56Q87.01 6.15 87.47 6.15L87.47 6.15L88.14 6.15L88.14 6.15Q88.38 6.15 88.50 6.33L88.50 6.33L90.01 8.71L91.51 6.33L91.51 6.33Q91.62 6.15 91.88 6.15L91.88 6.15L92.55 6.15L92.55 6.15Q93.01 6.15 92.73 6.56L92.73 6.56L90.66 9.55L92.99 12.93L92.99 12.93Q93.27 13.33 92.81 13.33L92.81 13.33L92.14 13.33L92.14 13.33Q91.90 13.33 91.78 13.15L91.78 13.15L90.01 10.38L88.24 13.15L88.24 13.15Q88.12 13.33 87.88 13.33L87.88 13.33Z"></path></g><!----><g data-v-423bf9ae="" id="00175571-9caa-433d-a23b-2a830f00ed64" transform="matrix(1.218969896616008,0,0,1.218969896616008,-0.8447463397372132,-15.853223218495998)" stroke="none" fill="#2F4858"><path d="M40.854 46.124L8.556 35.455l9.096 6.439 32.299 10.668zM18.14 71.511L54.285 83.45V55.799L18.09 43.842zM41.513 44.537a.857.857 0 0 1 .226.114l1.298.919V31.485l-16.981 7.946 15.457 5.106zM55.998 55.707V83.29l25.01-11.704-.023-27.572zM58.964 52.427l22.373-10.469 6.597-6.824-22.372 10.469z"></path><path d="M64.692 44.118l7.751-3.627-27.693-9.147v15.438l10.265 7.265 9.424-9.749a.858.858 0 0 1 .253-.18z"></path><path d="M93.613 31.095a2.23 2.23 0 0 0-1.254-.861l.809-1.279a2.216 2.216 0 0 0 .215-1.941 2.212 2.212 0 0 0-1.398-1.364L54.127 13.145a2.214 2.214 0 0 0-2.58.924l-7.708 12.184-8.329-11.076a2.238 2.238 0 0 0-1.781-.889c-.327 0-.645.071-.943.21L6.063 27.003a2.22 2.22 0 0 0-1.218 1.479 2.216 2.216 0 0 0 .382 1.877l.743.988-1.863-.615a2.206 2.206 0 0 0-.697-.112c-.846 0-1.608.469-1.988 1.223a2.239 2.239 0 0 0 .701 2.821l12.883 9.119.052 28.352c.001.961.616 1.81 1.528 2.111l37.857 12.506a2.236 2.236 0 0 0 1.642-.099l26.723-12.505a2.238 2.238 0 0 0 1.283-2.02l-.023-28.537 9.334-9.655a2.228 2.228 0 0 0 .211-2.841zm-1.219 1.889l-9.696 10.03.023 29.115a.858.858 0 0 1-.493.777L55.506 85.411c-.005.003-.012.001-.017.004a.854.854 0 0 1-.617.033L17.017 72.944a.855.855 0 0 1-.588-.812l-.053-29.043-13.484-9.544a.857.857 0 0 1 .763-1.513l6.046 1.997-3.379-4.494a.852.852 0 0 1-.146-.722.853.853 0 0 1 .468-.569l26.723-12.505a.855.855 0 0 1 1.047.261l9.522 12.662 8.77-13.861a.855.855 0 0 1 .992-.355L91.555 26.95a.854.854 0 0 1 .537.525.854.854 0 0 1-.082.747l-2.798 4.423 2.203-1.031a.856.856 0 0 1 .979 1.37z"></path></g><!----></svg>